<svg width="125" height="96" viewBox="0 0 125 96" fill="none" xmlns="http://www.w3.org/2000/svg">
<g clip-path="url(#clip0)">
<path d="M43.6022 32.52H39.1348L33.5696 36.0435V40.2585L38.7177 37.0314H38.8494V55H43.6022V32.52ZM48.0178 55H64.0436V51.1143H54.6037V50.9606L57.8857 47.7445C62.5068 43.5295 63.7472 41.422 63.7472 38.8645C63.7472 34.9678 60.564 32.2127 55.7453 32.2127C51.0253 32.2127 47.7873 35.0336 47.7982 39.4462H52.3096C52.2986 37.2948 53.6597 35.9776 55.7123 35.9776C57.6881 35.9776 59.159 37.207 59.159 39.1828C59.159 40.972 58.0613 42.2013 56.0197 44.1661L48.0178 51.5753V55ZM75.3743 55.4939C81.0273 55.4939 84.441 51.1911 84.4519 43.782C84.4629 36.4277 81.0053 32.2127 75.3743 32.2127C69.7324 32.2127 66.3077 36.4167 66.2967 43.782C66.2748 51.1692 69.7104 55.483 75.3743 55.4939ZM75.3743 51.5534C72.7948 51.5534 71.1264 48.9629 71.1374 43.782C71.1483 38.6779 72.8058 36.1093 75.3743 36.1093C77.9319 36.1093 79.6003 38.6779 79.6003 43.782C79.6113 48.9629 77.9428 51.5534 75.3743 51.5534Z" fill="white"/>
<rect x="13.5" y="15.5" width="91" height="54" stroke="white" stroke-width="5"/>
<path d="M3 21V80H99" stroke="white" stroke-width="5"/>
</g>
<defs>
<clipPath id="clip0">
<rect width="125" height="96" fill="white"/>
</clipPath>
</defs>
</svg>
