<svg width="107" height="70" viewBox="0 0 107 70" fill="none" xmlns="http://www.w3.org/2000/svg">
<path d="M43.6022 19.52H39.1348L33.5696 23.0435V27.2585L38.7177 24.0314H38.8494V42H43.6022V19.52ZM48.0178 42H64.0436V38.1143H54.6037V37.9606L57.8857 34.7445C62.5068 30.5295 63.7472 28.422 63.7472 25.8645C63.7472 21.9678 60.564 19.2127 55.7453 19.2127C51.0253 19.2127 47.7873 22.0336 47.7982 26.4462H52.3096C52.2986 24.2948 53.6597 22.9776 55.7123 22.9776C57.6881 22.9776 59.159 24.207 59.159 26.1828C59.159 27.972 58.0613 29.2013 56.0197 31.1661L48.0178 38.5753V42ZM75.3743 42.4939C81.0273 42.4939 84.441 38.1911 84.4519 30.782C84.4629 23.4277 81.0053 19.2127 75.3743 19.2127C69.7324 19.2127 66.3077 23.4167 66.2967 30.782C66.2748 38.1692 69.7104 42.483 75.3743 42.4939ZM75.3743 38.5534C72.7948 38.5534 71.1264 35.9629 71.1374 30.782C71.1483 25.6779 72.8058 23.1093 75.3743 23.1093C77.9319 23.1093 79.6003 25.6779 79.6003 30.782C79.6113 35.9629 77.9428 38.5534 75.3743 38.5534Z" fill="white"/>
<rect x="13.5" y="2.5" width="91" height="54" stroke="white" stroke-width="5"/>
<path d="M3 8V67H99" stroke="white" stroke-width="5"/>
</svg>
