<svg width="125" height="96" viewBox="0 0 125 96" fill="none" xmlns="http://www.w3.org/2000/svg">
<mask id="mask0" style="mask-type:alpha" maskUnits="userSpaceOnUse" x="3" y="23" width="93" height="51">
<path d="M3.35889 73.1411H95.3221V23.3252H3.35889V73.1411Z" fill="white"/>
</mask>
<g mask="url(#mask0)">
<path d="M64.4167 47.589C64.386 61.6227 54.0025 71.8681 39.6927 71.8681H33.8492V62.7577H39.6927C48.7725 62.7577 55.1222 56.4847 55.1375 47.5737C55.1222 38.6473 48.7725 32.4356 39.6927 32.4356H33.8492V23.3252H39.6927C54.0025 23.3252 64.386 33.5092 64.4167 47.543V47.589ZM64.4013 32.0522H75.567C78.9412 32.0522 81.2111 32.7424 82.8522 34.3375C84.3553 35.7792 85.1222 37.6964 85.1222 39.8436C85.1222 44.7516 80.8124 47.6657 76.0118 47.6657H73.2203L69.9535 54.5982L88.205 73.1872L95.3062 67.3283L82.3768 54.5215C89.524 53.2178 94.4013 46.7915 94.4013 40.043C94.4013 34.9816 92.9443 31.0859 89.2633 27.6964C85.4596 24.1841 81.2265 23.3252 74.8615 23.3252H64.4013V32.0522ZM34.1099 42.727H13.3124V23.3252H3.29703V71.8681H13.3124V52.4356H34.1099V42.727Z" fill="white"/>
</g>
</svg>
