<svg width="100" height="77" viewBox="0 0 100 77" fill="none" xmlns="http://www.w3.org/2000/svg">
<mask id="mask0" style="mask-type:alpha" maskUnits="userSpaceOnUse" x="3" y="11" width="93" height="51">
<path d="M3.35889 61.1411H95.3221V11.3252H3.35889V61.1411Z" fill="white"/>
</mask>
<g mask="url(#mask0)">
<path d="M64.4167 35.589C64.386 49.6227 54.0025 59.8681 39.6927 59.8681H33.8492V50.7577H39.6927C48.7725 50.7577 55.1222 44.4847 55.1375 35.5737C55.1222 26.6473 48.7725 20.4356 39.6927 20.4356H33.8492V11.3252H39.6927C54.0025 11.3252 64.386 21.5092 64.4167 35.543V35.589ZM64.4013 20.0522H75.567C78.9412 20.0522 81.2111 20.7424 82.8522 22.3375C84.3553 23.7792 85.1222 25.6964 85.1222 27.8436C85.1222 32.7516 80.8124 35.6657 76.0118 35.6657H73.2203L69.9535 42.5982L88.205 61.1872L95.3062 55.3283L82.3768 42.5215C89.524 41.2178 94.4013 34.7915 94.4013 28.043C94.4013 22.9816 92.9443 19.0859 89.2633 15.6964C85.4596 12.1841 81.2265 11.3252 74.8615 11.3252H64.4013V20.0522ZM34.1099 30.727H13.3124V11.3252H3.29703V59.8681H13.3124V40.4356H34.1099V30.727Z" fill="white"/>
</g>
</svg>
