<svg width="40" height="40" viewBox="0 0 40 40" fill="none" xmlns="http://www.w3.org/2000/svg">
<path fill-rule="evenodd" clip-rule="evenodd" d="M20.0012 9.33301C17.1042 9.33301 16.7407 9.34567 15.6029 9.39745C14.4673 9.44945 13.6922 9.62923 13.014 9.89301C12.3124 10.1655 11.7173 10.5299 11.1244 11.123C10.5311 11.7159 10.1666 12.311 9.89328 13.0124C9.62883 13.6908 9.44883 14.4662 9.39772 15.6013C9.34683 16.7391 9.3335 17.1029 9.3335 19.9998C9.3335 22.8967 9.34639 23.2592 9.39794 24.3969C9.45016 25.5325 9.62994 26.3076 9.8935 26.9859C10.1662 27.6874 10.5306 28.2825 11.1237 28.8754C11.7164 29.4688 12.3115 29.8341 13.0126 30.1066C13.6913 30.3703 14.4667 30.5501 15.602 30.6021C16.7398 30.6539 17.1031 30.6666 19.9998 30.6666C22.897 30.6666 23.2594 30.6539 24.3972 30.6021C25.5328 30.5501 26.3088 30.3703 26.9875 30.1066C27.6888 29.8341 28.283 29.4688 28.8757 28.8754C29.469 28.2825 29.8335 27.6874 30.1068 26.9861C30.3691 26.3076 30.5491 25.5323 30.6024 24.3972C30.6535 23.2594 30.6668 22.8967 30.6668 19.9998C30.6668 17.1029 30.6535 16.7393 30.6024 15.6015C30.5491 14.4659 30.3691 13.6908 30.1068 13.0126C29.8335 12.311 29.469 11.7159 28.8757 11.123C28.2824 10.5297 27.689 10.1652 26.9868 9.89301C26.3068 9.62923 25.5312 9.44945 24.3957 9.39745C23.2579 9.34567 22.8956 9.33301 19.9978 9.33301H20.0012ZM19.0442 11.2552C19.3282 11.2548 19.6451 11.2552 20.0011 11.2552C22.8491 11.2552 23.1867 11.2654 24.3114 11.3166C25.3514 11.3641 25.9158 11.5379 26.2918 11.6839C26.7896 11.8772 27.1445 12.1083 27.5176 12.4817C27.891 12.855 28.1221 13.2106 28.3159 13.7084C28.4619 14.0839 28.6359 14.6484 28.6832 15.6884C28.7343 16.8128 28.7454 17.1506 28.7454 19.9973C28.7454 22.844 28.7343 23.1818 28.6832 24.3062C28.6357 25.3463 28.4619 25.9107 28.3159 26.2863C28.1225 26.784 27.891 27.1385 27.5176 27.5116C27.1443 27.885 26.7899 28.1161 26.2918 28.3094C25.9163 28.4561 25.3514 28.6294 24.3114 28.677C23.1869 28.7281 22.8491 28.7392 20.0011 28.7392C17.1529 28.7392 16.8153 28.7281 15.6909 28.677C14.6508 28.629 14.0864 28.4552 13.7102 28.3092C13.2124 28.1158 12.8568 27.8847 12.4835 27.5114C12.1101 27.1381 11.879 26.7834 11.6853 26.2854C11.5393 25.9098 11.3652 25.3454 11.3179 24.3054C11.2668 23.1809 11.2566 22.8431 11.2566 19.9946C11.2566 17.1462 11.2668 16.8102 11.3179 15.6857C11.3655 14.6457 11.5393 14.0812 11.6853 13.7052C11.8786 13.2075 12.1101 12.8519 12.4835 12.4786C12.8568 12.1052 13.2124 11.8741 13.7102 11.6803C14.0862 11.5337 14.6508 11.3603 15.6909 11.3126C16.6749 11.2681 17.0562 11.2548 19.0442 11.2526V11.2552ZM25.695 13.0264C24.9883 13.0264 24.4149 13.599 24.4149 14.3059C24.4149 15.0126 24.9883 15.5859 25.695 15.5859C26.4016 15.5859 26.975 15.0126 26.975 14.3059C26.975 13.5992 26.4016 13.0264 25.695 13.0264ZM20.0012 14.5219C16.976 14.5219 14.5233 16.9746 14.5233 19.9998C14.5233 23.0249 16.976 25.4765 20.0012 25.4765C23.0263 25.4765 25.4781 23.0249 25.4781 19.9998C25.4781 16.9746 23.0263 14.5219 20.0012 14.5219ZM20.0011 16.4442C21.9647 16.4442 23.5567 18.036 23.5567 19.9998C23.5567 21.9633 21.9647 23.5553 20.0011 23.5553C18.0373 23.5553 16.4455 21.9633 16.4455 19.9998C16.4455 18.036 18.0373 16.4442 20.0011 16.4442Z" fill="white"/>
</svg>
