<svg width="40" height="40" viewBox="0 0 40 40" fill="none" xmlns="http://www.w3.org/2000/svg">
<path fill-rule="evenodd" clip-rule="evenodd" d="M28.3348 13.1248C29.2528 13.3767 29.9757 14.1188 30.221 15.0613C30.6668 16.7695 30.6668 20.3337 30.6668 20.3337C30.6668 20.3337 30.6668 23.8977 30.221 25.606C29.9757 26.5485 29.2528 27.2907 28.3348 27.5427C26.6713 28.0003 20.0002 28.0003 20.0002 28.0003C20.0002 28.0003 13.329 28.0003 11.6654 27.5427C10.7474 27.2907 10.0245 26.5485 9.77919 25.606C9.3335 23.8977 9.3335 20.3337 9.3335 20.3337C9.3335 20.3337 9.3335 16.7695 9.77919 15.0613C10.0245 14.1188 10.7474 13.3767 11.6654 13.1248C13.329 12.667 20.0002 12.667 20.0002 12.667C20.0002 12.667 26.6713 12.667 28.3348 13.1248ZM18.0002 17.3336V24.0003L23.3335 20.667L18.0002 17.3336Z" fill="white"/>
</svg>
